<svg xmlns="http://www.w3.org/2000/svg" viewBox="0 0 32 32">
  <circle cx="16" cy="16" r="14" fill="#F7931A" />
  <path d="M23.189 14.02c0.314-2.096-1.283-3.223-3.465-3.975l0.708-2.84-1.728-0.43-0.69 2.766c-0.454-0.113-0.92-0.22-1.385-0.326l0.695-2.783L15.596 6l-0.708 2.839c-0.376-0.086-0.746-0.17-1.104-0.26l0.002-0.009-2.384-0.595-0.46 1.846s1.283 0.294 1.256 0.312c0.7 0.175 0.826 0.638 0.805 1.006l-0.806 3.235c0.048 0.012 0.11 0.03 0.18 0.057-0.058-0.029-0.122-0.048-0.182-0.063l-1.128 4.523c-0.085 0.212-0.3 0.532-0.786 0.41l-1.257-0.313-0.858 1.978 2.25 0.561c0.418 0.105 0.828 0.215 1.238 0.318l-0.714 2.872 1.727 0.43 0.714-2.862c0.472 0.127 0.933 0.245 1.378 0.357l-0.701 2.814 1.727 0.433 0.715-2.866c2.948 0.558 5.164 0.333 6.097-2.332 0.752-2.146-0.037-3.409-1.601-4.215 1.138-0.263 1.993-1.015 2.223-2.567zM20.2 18.85c-0.685 2.75-5.32 1.263-6.824 0.89l1.218-4.881c1.505 0.375 6.343 1.114 5.606 3.992zm0.833-7.288c-0.626 2.51-4.54 1.234-5.808 0.917l1.104-4.427c1.268 0.317 5.356 0.903 4.704 3.51z" fill="white"/>
</svg>
